<?xml version="1.0" encoding="iso-8859-1"?>
<!-- Generator: Adobe Illustrator 19.0.0, SVG Export Plug-In . SVG Version: 6.00 Build 0)  -->
<svg version="1.1" id="Capa_1" xmlns="http://www.w3.org/2000/svg" xmlns:xlink="http://www.w3.org/1999/xlink" x="0px" y="0px"
	 viewBox="0 0 512 512" style="enable-background:new 0 0 512 512;" xml:space="preserve">
<polygon style="fill:#B7E4F8;" points="400.577,0.499 289.035,117.348 289.035,490.21 484.388,490.21 484.388,0.499 "/>
<polygon style="fill:#85D1F3;" points="400.577,0.499 385.913,15.861 385.913,490.21 484.388,490.21 484.388,0.499 "/>
<polygon style="fill:#B7E4F8;" points="235.166,86.245 123.624,203.093 123.624,490.21 318.977,490.21 318.977,86.245 "/>
<rect x="256.319" y="86.242" style="fill:#85D1F3;" width="62.654" height="403.961"/>
<rect x="343.449" y="383.75" style="fill:#4BBAED;" width="29.942" height="42.584"/>
<rect x="400.039" y="383.75" style="fill:#388CB2;" width="29.942" height="42.584"/>
<rect x="343.449" y="287.938" style="fill:#4BBAED;" width="29.942" height="42.584"/>
<rect x="400.039" y="287.938" style="fill:#388CB2;" width="29.942" height="42.584"/>
<rect x="343.449" y="192.125" style="fill:#4BBAED;" width="29.942" height="42.584"/>
<g>
	<rect x="400.039" y="192.125" style="fill:#388CB2;" width="29.942" height="42.584"/>
	<rect x="400.039" y="96.312" style="fill:#388CB2;" width="29.942" height="42.584"/>
</g>
<rect x="169.968" y="383.75" style="fill:#6FC8F1;" width="29.942" height="42.584"/>
<rect x="226.558" y="383.75" style="fill:#4BBAED;" width="29.942" height="42.584"/>
<rect x="169.968" y="287.938" style="fill:#6FC8F1;" width="29.942" height="42.584"/>
<g>
	<rect x="226.558" y="287.938" style="fill:#4BBAED;" width="29.942" height="42.584"/>
	<rect x="226.558" y="192.125" style="fill:#4BBAED;" width="29.942" height="42.584"/>
</g>
<rect x="40.59" y="411.696" style="fill:#FF9900;" width="29.942" height="95.474"/>
<path style="fill:#60DD4D;" d="M56.389,341.167C25.297,341.167,0,366.463,0,397.558c0,31.093,25.297,56.39,56.389,56.39
	c31.094,0,56.391-25.297,56.391-56.39C112.78,366.463,87.483,341.167,56.389,341.167z"/>
<path style="fill:#1EBA4A;" d="M56.389,453.946c31.094,0,56.391-25.297,56.391-56.39c0-31.094-25.297-56.39-56.391-56.39V453.946z"
	/>
<rect x="0.998" y="481.559" style="fill:#DFDEE0;" width="511.002" height="29.942"/>
<rect x="256.499" y="481.559" style="fill:#BEBDC2;" width="255.501" height="29.942"/>
<g>
</g>
<g>
</g>
<g>
</g>
<g>
</g>
<g>
</g>
<g>
</g>
<g>
</g>
<g>
</g>
<g>
</g>
<g>
</g>
<g>
</g>
<g>
</g>
<g>
</g>
<g>
</g>
<g>
</g>
</svg>
